<?xml version="1.0" encoding="UTF-8"?>
<svg width="512px" height="512px" viewBox="0 0 512 512" version="1.1" xmlns="http://www.w3.org/2000/svg" xmlns:xlink="http://www.w3.org/1999/xlink">
    <!-- Generator: Sketch 51.3 (57544) - http://www.bohemiancoding.com/sketch -->
    <title>Rectangle</title>
    <desc>Created with Sketch.</desc>
    <defs></defs>
    <g id="Page-1" stroke="none" stroke-width="1" fill="none" fill-rule="evenodd">
        <rect id="Rectangle" x="0" y="0" width="512" height="512"></rect>
        <g id="bucket" transform="translate(42.000000, 6.000000)" fill="#010002" fill-rule="nonzero">
            <path d="M428.143713,67.6106552 L428.108034,67.6106552 C427.555015,50.1811783 415.781063,40.0735104 403.989271,32.9124241 C367.650574,11.7684685 297.55988,0.375019482 214.071856,0 C158.609406,0 108.480913,5.62529223 70.9113024,15.1079277 C52.1086577,19.9296068 36.4278942,25.554899 24.0830838,32.9124241 C12.3448104,40.0735104 0.553018962,50.1990364 0,67.6106552 C0.0178393214,68.1106812 0.12487525,68.557133 0.160553892,69.057159 L0.0535179641,69.057159 L30.4160429,435.915503 L31.0760978,437.933465 C33.6092814,447.166087 61.3494261,500.82959 214.054017,499.99026 L217.942989,499.99026 C368.328468,500.008118 394.712824,447.041081 397.138972,437.576304 L397.656312,435.719064 L428.054516,69.057159 L427.965319,69.057159 C428.000998,68.557133 428.125873,68.1106812 428.143713,67.6106552 Z M362.566367,427.486494 C358.106537,434.040406 331.47243,464.006248 214.054017,464.309835 C141.126871,464.345551 102.540419,452.077057 83.434506,441.612228 C73.8369511,436.344097 68.9846557,431.59385 66.6477046,428.754417 C66.1660429,428.182958 65.7914172,427.665074 65.505988,427.272197 L39.246507,109.737844 C78.1719062,126.095836 140.984157,134.882007 214.089696,135.239169 C269.498628,135.203452 319.64496,129.613876 357.196732,120.077667 C369.07772,117.059653 379.567241,113.613045 388.897206,109.68427 L362.566367,427.486494 Z M390.60978,68.2178296 C383.77732,74.5395866 360.425649,84.0222221 329.046282,89.7725208 C297.55988,95.8085487 257.492764,99.4873112 214.071856,99.4873112 C161.106911,99.4873112 113.136976,93.9691674 79.6882485,85.4865839 C62.9728044,81.2899373 49.8965818,76.1825291 42.4040669,71.6644373 C39.8173653,70.1107851 37.9442365,68.6642814 36.80252,67.5749391 C37.0165918,67.3963584 37.248503,67.1999196 37.4982535,66.9856228 C44.3307136,60.6638658 67.6823852,51.2169464 99.0439122,45.4487896 C130.565993,39.3770456 170.633109,35.6982831 214.071856,35.6982831 C266.983283,35.6982831 314.935379,41.2164269 348.455464,49.7168685 C365.13523,53.9492312 378.193613,59.0209233 385.686128,63.5390151 C388.290669,65.0748092 390.163797,66.539171 391.269835,67.6106552 C391.091442,67.7892359 390.87737,67.9856747 390.60978,68.2178296 Z" id="Shape"></path>
        </g>
    </g>
</svg>